<svg xmlns="http://www.w3.org/2000/svg" width="20.832" height="23.4" viewBox="0 0 20.832 23.4">
  <g id="Group_4242" data-name="Group 4242" transform="translate(13437.295 447.414)">
    <g id="Path_8875" data-name="Path 8875" transform="translate(-13758.287 -646.346)" fill="none" stroke-miterlimit="10">
      <path d="M336.883,209.482a.469.469,0,0,0-.307-.373l-.863-.307a4.443,4.443,0,0,0-.173-.42l.395-.827a.472.472,0,0,0-.047-.481,5.567,5.567,0,0,0-1.177-1.18.466.466,0,0,0-.48-.047l-.828.393a4.408,4.408,0,0,0-.42-.173l-.3-.865a.467.467,0,0,0-.373-.307,4.922,4.922,0,0,0-1.666,0,.466.466,0,0,0-.373.307l-.307.863a4.425,4.425,0,0,0-.42.173l-.826-.392a.467.467,0,0,0-.48.047,5.456,5.456,0,0,0-1.176,1.177.466.466,0,0,0-.047.48l.395.827a4.334,4.334,0,0,0-.173.42l-.865.3a.467.467,0,0,0-.306.374,4.808,4.808,0,0,0,0,1.668.47.47,0,0,0,.307.374l.863.306a4.427,4.427,0,0,0,.173.42l-.4.827a.471.471,0,0,0,.047.48,5.51,5.51,0,0,0,1.179,1.177.466.466,0,0,0,.48.047l.827-.393a4.448,4.448,0,0,0,.42.173l.3.865a.468.468,0,0,0,.371.307,5.418,5.418,0,0,0,.836.069,5.662,5.662,0,0,0,.834-.069.466.466,0,0,0,.373-.307l.306-.863a4.371,4.371,0,0,0,.42-.173l.828.393a.467.467,0,0,0,.48-.047,5.535,5.535,0,0,0,1.175-1.179.467.467,0,0,0,.047-.48l-.4-.827a4.529,4.529,0,0,0,.173-.42l.865-.306a.47.47,0,0,0,.306-.374,5.436,5.436,0,0,0,.073-.834A5.747,5.747,0,0,0,336.883,209.482Z" stroke="none"/>
      <path d="M 331.47412109375 206.2239685058594 C 331.4462280273438 206.2239685058594 331.4183349609375 206.2243041992188 331.3904418945313 206.2249755859375 L 331.056640625 207.1650695800781 L 330.4247436523438 207.3866882324219 C 330.3328247070313 207.4189300537109 330.2388305664063 207.4578094482422 330.1373901367188 207.5055389404297 L 329.5389709472656 207.7870941162109 L 328.65283203125 207.3668212890625 C 328.6119079589844 207.4060821533203 328.57177734375 207.4462432861328 328.5325317382813 207.4871826171875 L 328.9574890136719 208.3773498535156 L 328.6713562011719 208.9795684814453 C 328.6271057128906 209.0727233886719 328.5875854492188 209.16845703125 328.5539245605469 209.2641143798828 L 328.3309020996094 209.8975067138672 L 327.3911437988281 210.2276153564453 C 327.3901672363281 210.2555999755859 327.3894653320313 210.2835845947266 327.3890686035156 210.3115692138672 C 327.3894653320313 210.3395385742188 327.3901062011719 210.3675537109375 327.3910827636719 210.3955383300781 L 328.3302001953125 210.7286071777344 L 328.5523986816406 211.3593597412109 C 328.5858154296875 211.4541168212891 328.6247253417969 211.5482788085938 328.6714172363281 211.6471862792969 L 328.9553527832031 212.2485198974609 L 328.5316772460938 213.1351776123047 C 328.5713806152344 213.1764831542969 328.6119995117188 213.2169952392578 328.6533813476563 213.2566223144531 L 329.5419921875 212.8349456787109 L 330.1413269042969 213.1180267333984 C 330.2364501953125 213.1629638671875 330.3333435058594 213.2028961181641 330.4293518066406 213.2367553710938 L 331.0622253417969 213.4598999023438 L 331.3910522460938 214.3958740234375 C 331.4476928710938 214.3974151611328 331.50439453125 214.3972015380859 331.5610961914063 214.3953857421875 L 331.8937377929688 213.4582061767578 L 332.5267333984375 213.2368927001953 C 332.6173095703125 213.2052154541016 332.7107849121094 213.1665496826172 332.8125 213.1186676025391 L 333.4113464355469 212.8367004394531 L 334.2974853515625 213.2573852539063 C 334.3385620117188 213.2178344726563 334.3788452148438 213.1774444580078 334.4182739257813 213.13623046875 L 333.9942932128906 212.2481689453125 L 334.2781982421875 211.6470489501953 C 334.3222961425781 211.5536193847656 334.362548828125 211.4558715820313 334.3977966308594 211.3565216064453 L 334.6208801269531 210.7275695800781 L 335.5593872070313 210.395263671875 C 335.560302734375 210.3696899414063 335.5609741210938 210.3441009521484 335.5614013671875 210.3185272216797 C 335.5606079101563 210.2900695800781 335.5595397949219 210.2615966796875 335.5581970214844 210.2331390380859 L 334.6136779785156 209.8977966308594 L 334.3917236328125 209.2668304443359 C 334.3585205078125 209.1724395751953 334.3196105957031 209.0782165527344 334.2727661132813 208.9787750244141 L 333.9898986816406 208.3781890869141 L 334.4133911132813 207.4910278320313 C 334.3734436035156 207.4492950439453 334.3325805664063 207.4083404541016 334.2908325195313 207.3682403564453 L 333.4029846191406 207.7893981933594 L 332.8033447265625 207.5054931640625 C 332.7091674804688 207.4609069824219 332.6127319335938 207.421142578125 332.5167236328125 207.3872833251953 L 331.8822326660156 207.1635131835938 L 331.5546569824219 206.2248992919922 C 331.5278015136719 206.2242889404297 331.5009460449219 206.2239685058594 331.47412109375 206.2239685058594 M 331.47412109375 204.823974609375 C 331.7527770996094 204.823974609375 332.0314636230469 204.8476409912109 332.30712890625 204.8949584960938 C 332.4789123535156 204.9196472167969 332.6229858398438 205.0382843017578 332.6805725097656 205.2022094726563 L 332.9823608398438 206.0669860839844 C 333.1252746582031 206.1173858642578 333.2655334472656 206.1753387451172 333.4024047851563 206.2401428222656 L 334.2301025390625 205.8475189208984 C 334.3865051269531 205.7724151611328 334.5713500976563 205.7906188964844 334.7105407714844 205.8941497802734 C 335.1597290039063 206.22607421875 335.5567321777344 206.6238403320313 335.8876647949219 207.0740509033203 C 335.990234375 207.213623046875 336.0080261230469 207.3981170654297 335.9342956542969 207.5548095703125 L 335.539306640625 208.3822174072266 C 335.602783203125 208.5169677734375 335.6610107421875 208.6561737060547 335.71240234375 208.8022613525391 L 336.5758361816406 209.1088104248047 C 336.7394104003906 209.1667785644531 336.8577575683594 209.3104248046875 336.8831176757813 209.4822235107422 C 336.9293518066406 209.7561950683594 336.9554443359375 210.0328979492188 336.9616394042969 210.3106384277344 C 336.9585571289063 210.5901184082031 336.9342041015625 210.868896484375 336.8882446289063 211.1445922851563 C 336.8628845214844 211.3160247802734 336.7452697753906 211.4597015380859 336.5820617675781 211.5183258056641 L 335.7172546386719 211.8245391845703 C 335.6665344238281 211.967529296875 335.60888671875 212.1077575683594 335.5440979003906 212.2449340820313 L 335.9391174316406 213.0723419189453 C 336.0138854980469 213.2286987304688 335.9960632324219 213.4138641357422 335.8924865722656 213.552734375 C 335.5622863769531 214.0026092529297 335.1658935546875 214.4000396728516 334.717041015625 214.7312469482422 C 334.5778198242188 214.8348083496094 334.3930053710938 214.8529663085938 334.2366333007813 214.7782440185547 L 333.4088745117188 214.3852844238281 C 333.2741088867188 214.44873046875 333.1349182128906 214.5073547363281 332.9888000488281 214.5584411621094 L 332.6823425292969 215.4218597412109 C 332.6243591308594 215.5857696533203 332.4806518554688 215.7037200927734 332.3088989257813 215.7284088134766 C 332.0328063964844 215.7719573974609 331.7540588378906 215.7949371337891 331.4749450683594 215.7973175048828 C 331.1947937011719 215.7959594726563 330.9150390625 215.7729949951172 330.6386413574219 215.7284088134766 C 330.4678649902344 215.7026824951172 330.3252258300781 215.5847473144531 330.2676086425781 215.4218597412109 L 329.9638061523438 214.5570831298828 C 329.8208618164063 214.5066833496094 329.6806030273438 214.44873046875 329.5433959960938 214.3839263916016 L 328.7160339355469 214.7765350341797 C 328.5595703125 214.8516387939453 328.37451171875 214.8334350585938 328.2356262207031 214.7298736572266 C 327.7853698730469 214.3993377685547 327.387939453125 214.0026092529297 327.0570983886719 213.552734375 C 326.9542541503906 213.4131774902344 326.9364318847656 213.2290344238281 327.0101013183594 213.0723419189453 L 327.4054565429688 212.2449340820313 C 327.3416748046875 212.1098327636719 327.2834167480469 211.9706115722656 327.2319641113281 211.8245391845703 L 326.3685607910156 211.5183258056641 C 326.2049560546875 211.4600524902344 326.0870666503906 211.3163604736328 326.0613403320313 211.1445922851563 C 326.0157470703125 210.868896484375 325.99169921875 210.5901184082031 325.9889831542969 210.3106384277344 C 325.9920043945313 210.0311889648438 326.016357421875 209.7524261474609 326.0623779296875 209.4767303466797 C 326.0870666503906 209.304931640625 326.2049560546875 209.1609191894531 326.3685607910156 209.1029663085938 L 327.2333679199219 208.7991790771484 C 327.2837219238281 208.6561737060547 327.3416748046875 208.5159301757813 327.4068298339844 208.3787841796875 L 327.0118408203125 207.5513763427734 C 326.9367370605469 207.3950347900391 326.9548645019531 207.2098541259766 327.0584106445313 207.0709838867188 C 327.387939453125 206.6207275390625 327.7847290039063 206.2236785888672 328.2345275878906 205.8938140869141 C 328.3738403320313 205.7899169921875 328.5586242675781 205.7721099853516 328.7149963378906 205.8468322753906 L 329.5413513183594 206.2387542724609 C 329.6761169433594 206.1753387451172 329.815673828125 206.11669921875 329.9613952636719 206.0655975341797 L 330.2679443359375 205.2022094726563 C 330.3255920410156 205.0382843017578 330.46923828125 204.9196472167969 330.6413269042969 204.8949584960938 C 330.9168701171875 204.8476409912109 331.1954650878906 204.823974609375 331.47412109375 204.823974609375 Z" stroke="none" fill="#2d2e30"/>
    </g>
    <g id="Ellipse_454" data-name="Ellipse 454" transform="translate(-13429.349 -438.524)" fill="none" stroke="#2d2e30" stroke-width="1.4">
      <circle cx="2.529" cy="2.529" r="2.529" stroke="none"/>
      <circle cx="2.529" cy="2.529" r="1.829" fill="none"/>
    </g>
    <g id="Group_4241" data-name="Group 4241" transform="translate(-13436.595 -446.714)">
      <path id="Path_8875-2" data-name="Path 8875" d="M312.753,209.269h-3.014a2.451,2.451,0,0,0-1.615.336,2.191,2.191,0,0,0-.8,1.516V198.46a2.638,2.638,0,0,1,2.523-2.727h10.593s4.248.092,4.945,0c.946-.125,1.371-1.43,1.371-1.43v12.238a2.639,2.639,0,0,1-2.523,2.727h-2.979" transform="translate(-307.326 -191.929)" fill="none" stroke="#2d2e30" stroke-linecap="round" stroke-linejoin="round" stroke-width="1.4"/>
      <path id="Rectangle_1485" data-name="Rectangle 1485" d="M0,0H2.88A1.848,1.848,0,0,1,4.729,1.848v0A1.848,1.848,0,0,1,2.88,3.7H0a0,0,0,0,1,0,0V0A0,0,0,0,1,0,0Z" transform="translate(14.703 0)" fill="none" stroke="#2d2e30" stroke-miterlimit="10" stroke-width="1.4"/>
      <path id="Rectangle_1486" data-name="Rectangle 1486" d="M0,0H2.88A1.848,1.848,0,0,1,4.729,1.848v0A1.848,1.848,0,0,1,2.88,3.7H0a0,0,0,0,1,0,0V0A0,0,0,0,1,0,0Z" transform="translate(4.729 21.157) rotate(-180)" fill="none" stroke="#2d2e30" stroke-miterlimit="10" stroke-width="1.4"/>
      <path id="Path_8876" data-name="Path 8876" d="M339.715,235.672v1.952a.729.729,0,0,1-.782.656h-2.966a.729.729,0,0,1-.782-.656v-1.952" transform="translate(-327.785 -219.233)" fill="none" stroke="#2d2e30" stroke-linecap="round" stroke-linejoin="round" stroke-width="1.4"/>
      <line id="Line_159" data-name="Line 159" x2="2.705" transform="translate(8.409 20.518)" fill="none" stroke="#2d2e30" stroke-linecap="round" stroke-linejoin="round" stroke-width="1.4"/>
      <line id="Line_160" data-name="Line 160" x2="1.261" transform="translate(9.131 22)" fill="none" stroke="#2d2e30" stroke-linecap="round" stroke-linejoin="round" stroke-width="1.4"/>
    </g>
  </g>
</svg>
